<svg width="1134" height="197" viewBox="0 0 1134 197" fill="none" xmlns="http://www.w3.org/2000/svg">
<path d="M826.389 138.92C825.74 143.649 820.546 147.399 814.213 147.713C806.494 148.095 800.306 143.287 801.098 137.523L807.606 90.1465C808.256 85.4185 813.449 81.6679 819.782 81.3545C827.501 80.9732 833.689 85.7812 832.897 91.5438L826.389 138.92ZM897.698 51.3692C885.698 43.3692 852.365 41.2332 852.365 41.2332C727.032 41.7625 753.698 162.036 753.698 162.036C769.698 212.703 817.698 183.369 817.698 183.369C821.698 180.703 827.032 174.668 827.032 174.668H830.037L830.141 174.501L828.365 188.001H879.07L893.612 81.1092L897.698 51.9998L897.606 52.0265L897.698 51.3692Z" fill="black"/>
<path d="M571.721 138.92C571.072 143.649 565.878 147.399 559.545 147.713C551.826 148.095 545.638 143.287 546.43 137.523L552.938 90.1465C553.588 85.4185 558.781 81.6679 565.114 81.3545C572.833 80.9732 579.021 85.7812 578.229 91.5438L571.721 138.92ZM643.03 51.3692C631.03 43.3692 597.697 41.2332 597.697 41.2332C472.364 41.7625 499.03 162.036 499.03 162.036C515.03 212.703 563.03 183.369 563.03 183.369C567.03 180.703 572.364 174.668 572.364 174.668H575.369L575.473 174.501L573.697 188.001H624.402L638.944 81.1092L643.03 51.9998L642.938 52.0265L643.03 51.3692Z" fill="black"/>
<path d="M448.295 65.5514L449.698 46.6661L407.031 42.6661L405.874 66.6794L405.698 66.6661L388.488 188.001H443.155L455.614 103.061C456.9 96.6487 463.038 79.6447 491.332 92.4487L505.698 49.3327C505.698 49.3327 480.226 24.4354 448.295 65.5514Z" fill="black"/>
<path d="M97.6983 90.6666L104.242 48H70.8303L77.5757 -2.89957e-05H22.909L0.364994 160C-4.96834 201.333 49.6983 197.333 63.0317 194.667C68.6357 193.547 75.021 190.804 80.5477 188H80.4877L86.0863 148.169C58.7717 159.184 57.249 144.636 57.249 144.636L64.8343 90.6666H97.6983Z" fill="black"/>
<path d="M749.698 90.6666L756.242 48H722.83L729.576 -2.89957e-05H674.909L652.365 160C647.032 201.333 701.698 197.333 715.032 194.667C720.636 193.547 727.021 190.804 732.548 188H732.488L738.085 148.169C710.772 159.184 709.249 144.636 709.249 144.636L716.834 90.6666H749.698Z" fill="black"/>
<path d="M225.699 46.6667C201.699 34.6667 178.666 51.8427 178.666 51.8427L178.211 52.4093L185.576 -5.60284e-06H130.91L104.488 188H159.155L168.867 118.895L172.272 94.6667L173.219 87.9347C173.699 84 178.786 82.6667 181.699 82.6667C184.366 82.6667 188.366 84 188.13 87.132L187.06 94.6667L183.026 123.116L173.822 188H228.488L242.659 91.872L243.032 92C244.366 73.3333 249.699 58.6667 225.699 46.6667Z" fill="black"/>
<path d="M331.245 99.1945C297.858 118.644 311.605 93.0585 311.605 93.0585C326.443 66.4745 364.631 79.7452 331.245 99.1945ZM384.366 70.6665C379.033 35.9998 329.699 43.9998 329.699 43.9998C239.033 58.6665 256.151 152 256.151 152C281.27 226.667 371.033 178.667 371.033 178.667L360.366 145.333C313.699 172 307.033 140 307.033 140C405.699 134.667 384.366 70.6665 384.366 70.6665Z" fill="black"/>
<path d="M927.246 0.0324651L900.826 188.032H955.493L981.913 0.0324651H927.246Z" fill="black"/>
<path d="M1107.5 151.175L1107.52 151.218C1117.52 155.234 1130.87 148.17 1130.87 148.17C1118.61 153.112 1111.56 152.903 1107.5 151.175Z" fill="black"/>
<path d="M1074.04 105.366C1062.64 112.716 1055.61 115.502 1051.39 115.69C1040.31 116.183 1048.7 98.6991 1048.7 98.6991C1050.53 95.0471 1052.71 91.9485 1055.11 89.3471C1075.43 67.2631 1111.01 81.5085 1074.04 105.366ZM1107.52 151.218C1101.33 148.735 1096.42 142.02 1096.73 126.771C1099.58 125.666 1102.37 124.474 1105.05 123.188C1110.01 120.81 1114.59 118.107 1118.49 115.056C1123.97 110.778 1128.11 105.807 1130.04 100.032C1136.15 81.7005 1133.47 52.8565 1116.17 44.0885C1104.4 38.1258 1085.86 41.4698 1058.72 63.7298C1056.11 65.8711 1053.42 68.1658 1050.65 70.6645V70.6671L1060.58 0.0324621H1005.91L979.492 188.032H1034.16L1040.97 139.574C1040.97 139.574 1043.57 139.322 1047.89 138.72L1048.06 139.347L1045.15 160C1039.82 201.334 1094.48 197.334 1107.82 194.667C1113.42 193.546 1119.81 190.804 1125.33 188H1125.27L1130.87 148.17C1130.87 148.17 1117.52 155.234 1107.52 151.218Z" fill="black"/>
</svg>
